<?xml version="1.0" encoding="UTF-8" standalone="no"?>
<!-- Created with Inkscape (http://www.inkscape.org/) -->

<svg
   width="156.0504mm"
   height="19.843752mm"
   viewBox="0 0 156.0504 19.843752"
   version="1.1"
   id="svg1"
   xmlns="http://www.w3.org/2000/svg"
   xmlns:svg="http://www.w3.org/2000/svg">
  <defs
     id="defs1" />
  <g
     id="layer2"
     transform="translate(-30.134918,-82.680381)">
    <path
       style="font-size:25.4px;line-height:0px;font-family:Michroma;-inkscape-font-specification:Michroma;text-align:center;letter-spacing:-0.529167px;word-spacing:0px;text-anchor:middle;white-space:pre;opacity:1;fill:#101010;stroke-width:0.79375;stroke-linecap:round;stroke-linejoin:round;paint-order:markers fill stroke"
       d="m 177.46648,82.680376 q 2.18281,0 3.67109,0.272852 1.50069,0.260449 2.46807,0.806152 0.96738,0.533301 1.48828,1.351855 0.5209,0.818555 0.75654,1.922364 0.24805,1.103808 0.28526,2.492871 0.0496,1.389062 0.0496,3.075781 0,1.686719 -0.0496,3.075781 -0.0372,1.389062 -0.28526,2.492871 -0.23564,1.103809 -0.75654,1.922367 -0.5209,0.81855 -1.48828,1.36425 -0.96738,0.5333 -2.46807,0.79375 -1.48828,0.27286 -3.67109,0.27286 h -7.16855 q -2.18282,0 -3.6835,-0.27286 -1.48828,-0.26045 -2.45566,-0.79375 -0.96739,-0.5457 -1.50069,-1.36425 -0.5209,-0.818558 -0.76894,-1.922367 -0.23565,-1.103809 -0.27286,-2.492871 -0.0372,-1.389062 -0.0372,-3.075781 0,-1.686719 0.0372,-3.075781 0.0372,-1.389063 0.27286,-2.492871 0.24804,-1.103809 0.76894,-1.922364 0.5333,-0.818554 1.50069,-1.351855 0.96738,-0.545703 2.45566,-0.806152 1.50068,-0.272852 3.6835,-0.272852 z m 0,17.859374 q 1.5751,0 2.6541,-0.0868 1.09141,-0.0992 1.79834,-0.38447 0.70693,-0.285255 1.09141,-0.818556 0.38447,-0.533301 0.5581,-1.413867 0.17364,-0.880567 0.19844,-2.158008 0.0372,-1.289844 0.0372,-3.075781 0,-1.785938 -0.0372,-3.063379 -0.0248,-1.289844 -0.19844,-2.17041 -0.17363,-0.880567 -0.5581,-1.413867 -0.38448,-0.533301 -1.09141,-0.818555 -0.69453,-0.285254 -1.78594,-0.37207 -1.079,-0.09922 -2.6665,-0.09922 h -7.16855 q -1.5875,0 -2.67891,0.09922 -1.079,0.08682 -1.78594,0.37207 -0.70693,0.285254 -1.0914,0.818555 -0.38448,0.5333 -0.55811,1.413867 -0.17363,0.880566 -0.19844,2.17041 -0.0248,1.277441 -0.0248,3.063379 0,1.785937 0.0248,3.075781 0.0372,1.277441 0.21084,2.158008 0.17363,0.880566 0.54571,1.413867 0.38447,0.533301 1.0914,0.818556 0.70694,0.28526 1.78594,0.38447 1.09141,0.0868 2.67891,0.0868 z"
       id="path11" />
    <path
       style="font-size:25.4px;line-height:0px;font-family:Michroma;-inkscape-font-specification:Michroma;text-align:center;letter-spacing:-0.529167px;word-spacing:0px;text-anchor:middle;white-space:pre;opacity:1;fill:#101010;stroke-width:0.79375;stroke-linecap:round;stroke-linejoin:round;paint-order:markers fill stroke"
       d="m 157.92298,101.77857 h -19.84375 v 0 h -2.77813 l 11.1125,-19.049993 h 3.175 l 11.1125,19.049993 z m 0,0 -9.92188,-17.462497 -9.92187,17.462497 z"
       id="path3" />
    <path
       style="opacity:1;fill:#101010;fill-opacity:1;stroke:#0c0c0c;stroke-width:1.85208;stroke-linecap:butt;stroke-linejoin:round;stroke-dasharray:none;stroke-opacity:1;paint-order:markers fill stroke"
       d="m 115,91.941667 h 41"
       id="path2"
       transform="matrix(0.90345528,0,0,1,12.97469,0.79478966)" />
    <path
       style="fill:#101010;fill-opacity:1;stroke:#0c0c0c;stroke-width:1.85208;stroke-linecap:butt;stroke-linejoin:round;stroke-dasharray:none;stroke-opacity:1;paint-order:markers fill stroke"
       d="m 115,91.941667 h 41"
       id="path2-68"
       transform="matrix(0.29039634,0,0,1,26.664837,0.73607336)" />
    <path
       style="font-size:25.4px;line-height:0px;font-family:Michroma;-inkscape-font-specification:Michroma;text-align:center;letter-spacing:-0.529167px;word-spacing:0px;text-anchor:middle;white-space:pre;opacity:1;fill:#101010;stroke-width:0.79375;stroke-linecap:round;stroke-linejoin:round;paint-order:markers fill stroke"
       d="m 124.7896,100.14288 q 1.5751,0 2.6665,-0.0868 1.09141,-0.08682 1.79834,-0.347266 0.70694,-0.272852 1.09141,-0.781348 0.38447,-0.508496 0.55811,-1.339453 0.18603,-0.843359 0.21084,-2.058789 0.0372,-1.227832 0.0372,-2.926953 0,-1.699121 -0.0372,-2.914551 -0.0248,-1.227832 -0.21084,-2.058789 -0.17364,-0.843359 -0.55811,-1.351855 -0.38447,-0.508496 -1.09141,-0.768946 -0.70693,-0.272851 -1.79834,-0.359668 -1.079,-0.08682 -2.6665,-0.08682 H 112.89575 V 100.1429 Z m -14.2751,1.98437 V 83.077251 h 14.2751 q 2.18281,0 3.67109,0.260449 1.50069,0.248047 2.46807,0.768945 0.97979,0.520899 1.50068,1.302247 0.53331,0.781347 0.76895,1.847949 0.24805,1.054199 0.28525,2.393652 0.0496,1.327051 0.0496,2.951758 0,1.624707 -0.0496,2.96416 -0.0372,1.327051 -0.28525,2.393652 -0.23564,1.054199 -0.76895,1.835547 -0.52089,0.78135 -1.50068,1.30225 -0.96738,0.52089 -2.46807,0.78134 -1.48828,0.24805 -3.67109,0.24805 z"
       id="path9" />
    <path
       style="font-size:25.4px;line-height:0px;font-family:Michroma;-inkscape-font-specification:Michroma;text-align:center;letter-spacing:-0.529167px;word-spacing:0px;text-anchor:middle;white-space:pre;opacity:1;fill:#101010;stroke-width:0.79375;stroke-linecap:round;stroke-linejoin:round;paint-order:markers fill stroke"
       d="m 84.639085,102.12725 h -2.38125 V 83.077251 h 4.17959 l 17.462495,16.66875 v -16.66875 h 2.38125 v 19.049999 h -3.175 L 84.639085,85.061626 Z"
       id="path8" />
    <path
       style="font-size:25.4px;line-height:0px;font-family:Michroma;-inkscape-font-specification:Michroma;text-align:center;letter-spacing:-0.529167px;word-spacing:0px;text-anchor:middle;white-space:pre;opacity:1;fill:#101010;stroke-width:0.79375;stroke-linecap:round;stroke-linejoin:round;paint-order:markers fill stroke"
       d="m 76.541966,102.19406 h -19.84375 v 0 h -2.77813 l 11.1125,-19.049992 h 3.175 l 11.1125,19.049992 z m 0,0 -9.92188,-17.462502 -9.92187,17.462502 z"
       id="path3-3" />
    <path
       style="font-size:25.4px;line-height:0px;font-family:Michroma;-inkscape-font-specification:Michroma;text-align:center;letter-spacing:-0.529167px;word-spacing:0px;text-anchor:middle;white-space:pre;opacity:1;fill:#101010;stroke-width:0.79375;stroke-linecap:round;stroke-linejoin:round;paint-order:markers fill stroke"
       d="m 51.963043,102.12725 h -2.38125 v -3.571874 q 0,-0.868164 -0.03721,-1.488282 -0.02481,-0.632519 -0.21084,-1.079003 -0.173633,-0.446485 -0.558105,-0.719336 -0.384473,-0.272852 -1.091407,-0.42168 -0.706933,-0.148828 -1.798339,-0.198437 -1.079004,-0.06201 -2.666504,-0.06201 h -10.70322 v 7.540622 h -2.38125 V 83.077251 h 13.481348 q 2.182812,0 3.671093,0.16123 1.500684,0.148829 2.468067,0.458887 0.979785,0.310059 1.500683,0.768945 0.533301,0.458887 0.768946,1.079004 0.248046,0.620118 0.285253,1.389063 0.04961,0.768945 0.04961,1.699121 0,1.190625 -0.173633,2.095996 -0.16123,0.892969 -0.558105,1.525488 -0.396875,0.63252 -1.0542,1.016992 -0.657324,0.372071 -1.649511,0.520899 0.992187,0.148828 1.5875,0.520898 0.595312,0.372071 0.917773,0.967383 0.322461,0.595313 0.42168,1.413867 0.111621,0.818555 0.111621,1.860352 z M 32.516168,92.602251 h 11.100098 q 1.5875,0 2.666504,-0.04961 1.091406,-0.06201 1.798339,-0.210839 0.706934,-0.148829 1.091407,-0.42168 0.384472,-0.272852 0.558105,-0.719336 0.186035,-0.446484 0.21084,-1.066602 0.03721,-0.632519 0.03721,-1.500683 0,-0.806152 -0.03721,-1.389063 -0.0248,-0.58291 -0.21084,-0.979785 -0.173633,-0.396875 -0.558105,-0.632519 -0.384473,-0.235645 -1.091407,-0.359668 -0.706933,-0.136426 -1.798339,-0.173633 -1.079004,-0.03721 -2.666504,-0.03721 H 32.516168 Z"
       id="text1" />
  </g>
</svg>
